<mxfile host="app.diagrams.net" agent="Mozilla/5.0 (Windows NT 10.0; Win64; x64) AppleWebKit/537.36 (KHTML, like Gecko) Chrome/129.0.0.0 Safari/537.36" version="24.7.14">
  <diagram name="Страница — 1" id="gFto8VWZuhx-wg1McL8I">
    <mxGraphModel dx="1563" dy="633" grid="1" gridSize="10" guides="1" tooltips="1" connect="1" arrows="1" fold="1" page="1" pageScale="1" pageWidth="827" pageHeight="1169" math="0" shadow="0">
      <root>
        <mxCell id="0" />
        <mxCell id="1" parent="0" />
        <mxCell id="Yh0Fh-VeUHj8jeNLL_Vo-2" value="Пациент звонит в регистратуру" style="rounded=1;whiteSpace=wrap;html=1;" vertex="1" parent="1">
          <mxGeometry x="70" y="70" width="120" height="60" as="geometry" />
        </mxCell>
        <mxCell id="Yh0Fh-VeUHj8jeNLL_Vo-3" value="Регистратор отвечает на звонок" style="rounded=1;whiteSpace=wrap;html=1;" vertex="1" parent="1">
          <mxGeometry x="250" y="70" width="120" height="60" as="geometry" />
        </mxCell>
        <mxCell id="Yh0Fh-VeUHj8jeNLL_Vo-4" value="Регистратор запрашивает информацию о пациенте" style="rounded=1;whiteSpace=wrap;html=1;" vertex="1" parent="1">
          <mxGeometry x="430" y="70" width="120" height="60" as="geometry" />
        </mxCell>
        <mxCell id="Yh0Fh-VeUHj8jeNLL_Vo-5" value="Пациент предоставляет информацию" style="rounded=1;whiteSpace=wrap;html=1;" vertex="1" parent="1">
          <mxGeometry x="610" y="70" width="120" height="60" as="geometry" />
        </mxCell>
        <mxCell id="Yh0Fh-VeUHj8jeNLL_Vo-6" value="Регистратор проверяет наличие талонов" style="rounded=1;whiteSpace=wrap;html=1;" vertex="1" parent="1">
          <mxGeometry x="330" y="180" width="120" height="60" as="geometry" />
        </mxCell>
        <mxCell id="Yh0Fh-VeUHj8jeNLL_Vo-7" value="Регистратор предлагает талон" style="rounded=1;whiteSpace=wrap;html=1;" vertex="1" parent="1">
          <mxGeometry x="130" y="280" width="120" height="60" as="geometry" />
        </mxCell>
        <mxCell id="Yh0Fh-VeUHj8jeNLL_Vo-8" value="Пациент соглашается" style="rounded=1;whiteSpace=wrap;html=1;" vertex="1" parent="1">
          <mxGeometry x="130" y="380" width="120" height="60" as="geometry" />
        </mxCell>
        <mxCell id="Yh0Fh-VeUHj8jeNLL_Vo-9" value="Регистратор записывает пациента на прием" style="rounded=1;whiteSpace=wrap;html=1;" vertex="1" parent="1">
          <mxGeometry x="130" y="480" width="120" height="60" as="geometry" />
        </mxCell>
        <mxCell id="Yh0Fh-VeUHj8jeNLL_Vo-10" value="Регистратор информирует пациента о дате и времени приема" style="rounded=1;whiteSpace=wrap;html=1;" vertex="1" parent="1">
          <mxGeometry x="130" y="580" width="120" height="60" as="geometry" />
        </mxCell>
        <mxCell id="Yh0Fh-VeUHj8jeNLL_Vo-11" value="Завершение разговора" style="rounded=1;whiteSpace=wrap;html=1;" vertex="1" parent="1">
          <mxGeometry x="310" y="660" width="120" height="60" as="geometry" />
        </mxCell>
        <mxCell id="Yh0Fh-VeUHj8jeNLL_Vo-12" value="Регистратор предлагает другие варианты (дата, время, врач)" style="rounded=1;whiteSpace=wrap;html=1;" vertex="1" parent="1">
          <mxGeometry x="550" y="280" width="120" height="60" as="geometry" />
        </mxCell>
        <mxCell id="Yh0Fh-VeUHj8jeNLL_Vo-13" value="Пациент соглашается" style="rounded=1;whiteSpace=wrap;html=1;" vertex="1" parent="1">
          <mxGeometry x="420" y="470" width="120" height="60" as="geometry" />
        </mxCell>
        <mxCell id="Yh0Fh-VeUHj8jeNLL_Vo-14" value="Пациент отказывается" style="rounded=1;whiteSpace=wrap;html=1;" vertex="1" parent="1">
          <mxGeometry x="630" y="470" width="120" height="60" as="geometry" />
        </mxCell>
        <mxCell id="Yh0Fh-VeUHj8jeNLL_Vo-16" value="" style="endArrow=classic;html=1;rounded=0;exitX=1;exitY=0.5;exitDx=0;exitDy=0;exitPerimeter=0;entryX=0;entryY=0.5;entryDx=0;entryDy=0;" edge="1" parent="1" source="Yh0Fh-VeUHj8jeNLL_Vo-2" target="Yh0Fh-VeUHj8jeNLL_Vo-3">
          <mxGeometry width="50" height="50" relative="1" as="geometry">
            <mxPoint x="390" y="320" as="sourcePoint" />
            <mxPoint x="440" y="270" as="targetPoint" />
          </mxGeometry>
        </mxCell>
        <mxCell id="Yh0Fh-VeUHj8jeNLL_Vo-17" value="" style="endArrow=classic;html=1;rounded=0;exitX=1;exitY=0.5;exitDx=0;exitDy=0;exitPerimeter=0;entryX=0;entryY=0.5;entryDx=0;entryDy=0;" edge="1" parent="1">
          <mxGeometry width="50" height="50" relative="1" as="geometry">
            <mxPoint x="370" y="99.8" as="sourcePoint" />
            <mxPoint x="430" y="99.8" as="targetPoint" />
          </mxGeometry>
        </mxCell>
        <mxCell id="Yh0Fh-VeUHj8jeNLL_Vo-18" value="" style="endArrow=classic;html=1;rounded=0;exitX=1;exitY=0.5;exitDx=0;exitDy=0;exitPerimeter=0;entryX=0;entryY=0.5;entryDx=0;entryDy=0;" edge="1" parent="1">
          <mxGeometry width="50" height="50" relative="1" as="geometry">
            <mxPoint x="550" y="99.8" as="sourcePoint" />
            <mxPoint x="610" y="99.8" as="targetPoint" />
          </mxGeometry>
        </mxCell>
        <mxCell id="Yh0Fh-VeUHj8jeNLL_Vo-19" value="" style="endArrow=classic;html=1;rounded=0;exitX=0.5;exitY=1;exitDx=0;exitDy=0;entryX=0.5;entryY=0;entryDx=0;entryDy=0;" edge="1" parent="1" source="Yh0Fh-VeUHj8jeNLL_Vo-5" target="Yh0Fh-VeUHj8jeNLL_Vo-6">
          <mxGeometry width="50" height="50" relative="1" as="geometry">
            <mxPoint x="560" y="109.8" as="sourcePoint" />
            <mxPoint x="620" y="109.8" as="targetPoint" />
          </mxGeometry>
        </mxCell>
        <mxCell id="Yh0Fh-VeUHj8jeNLL_Vo-20" value="" style="endArrow=classic;html=1;rounded=0;exitX=0;exitY=0.5;exitDx=0;exitDy=0;entryX=0.5;entryY=0;entryDx=0;entryDy=0;" edge="1" parent="1" source="Yh0Fh-VeUHj8jeNLL_Vo-6" target="Yh0Fh-VeUHj8jeNLL_Vo-7">
          <mxGeometry width="50" height="50" relative="1" as="geometry">
            <mxPoint x="270" y="330" as="sourcePoint" />
            <mxPoint x="330" y="330" as="targetPoint" />
          </mxGeometry>
        </mxCell>
        <mxCell id="Yh0Fh-VeUHj8jeNLL_Vo-21" value="Есть свободные талоны&amp;nbsp;" style="text;html=1;align=center;verticalAlign=middle;whiteSpace=wrap;rounded=0;" vertex="1" parent="1">
          <mxGeometry x="190" y="218" width="60" height="30" as="geometry" />
        </mxCell>
        <mxCell id="Yh0Fh-VeUHj8jeNLL_Vo-22" value="" style="endArrow=classic;html=1;rounded=0;entryX=0.5;entryY=0;entryDx=0;entryDy=0;exitX=1;exitY=0.5;exitDx=0;exitDy=0;" edge="1" parent="1" source="Yh0Fh-VeUHj8jeNLL_Vo-6" target="Yh0Fh-VeUHj8jeNLL_Vo-12">
          <mxGeometry width="50" height="50" relative="1" as="geometry">
            <mxPoint x="530" y="219" as="sourcePoint" />
            <mxPoint x="420" y="320" as="targetPoint" />
          </mxGeometry>
        </mxCell>
        <mxCell id="Yh0Fh-VeUHj8jeNLL_Vo-23" value="Нет свободных талонов&amp;nbsp;" style="text;html=1;align=center;verticalAlign=middle;whiteSpace=wrap;rounded=0;" vertex="1" parent="1">
          <mxGeometry x="530" y="210" width="60" height="30" as="geometry" />
        </mxCell>
        <mxCell id="Yh0Fh-VeUHj8jeNLL_Vo-24" value="" style="endArrow=classic;html=1;rounded=0;exitX=0.5;exitY=1;exitDx=0;exitDy=0;entryX=0.5;entryY=0;entryDx=0;entryDy=0;" edge="1" parent="1" source="Yh0Fh-VeUHj8jeNLL_Vo-7" target="Yh0Fh-VeUHj8jeNLL_Vo-8">
          <mxGeometry width="50" height="50" relative="1" as="geometry">
            <mxPoint x="310" y="400" as="sourcePoint" />
            <mxPoint x="360" y="350" as="targetPoint" />
          </mxGeometry>
        </mxCell>
        <mxCell id="Yh0Fh-VeUHj8jeNLL_Vo-25" value="" style="endArrow=classic;html=1;rounded=0;exitX=0.5;exitY=1;exitDx=0;exitDy=0;entryX=0.5;entryY=0;entryDx=0;entryDy=0;" edge="1" parent="1">
          <mxGeometry width="50" height="50" relative="1" as="geometry">
            <mxPoint x="189.17" y="440" as="sourcePoint" />
            <mxPoint x="189.17" y="480" as="targetPoint" />
          </mxGeometry>
        </mxCell>
        <mxCell id="Yh0Fh-VeUHj8jeNLL_Vo-26" value="" style="endArrow=classic;html=1;rounded=0;exitX=0.5;exitY=1;exitDx=0;exitDy=0;entryX=0.5;entryY=0;entryDx=0;entryDy=0;" edge="1" parent="1">
          <mxGeometry width="50" height="50" relative="1" as="geometry">
            <mxPoint x="189.17" y="540" as="sourcePoint" />
            <mxPoint x="189.17" y="580" as="targetPoint" />
          </mxGeometry>
        </mxCell>
        <mxCell id="Yh0Fh-VeUHj8jeNLL_Vo-27" value="" style="endArrow=classic;html=1;rounded=0;exitX=0.5;exitY=1;exitDx=0;exitDy=0;entryX=0;entryY=0.5;entryDx=0;entryDy=0;" edge="1" parent="1" source="Yh0Fh-VeUHj8jeNLL_Vo-10" target="Yh0Fh-VeUHj8jeNLL_Vo-11">
          <mxGeometry width="50" height="50" relative="1" as="geometry">
            <mxPoint x="310" y="560" as="sourcePoint" />
            <mxPoint x="360" y="510" as="targetPoint" />
          </mxGeometry>
        </mxCell>
        <mxCell id="Yh0Fh-VeUHj8jeNLL_Vo-28" value="" style="endArrow=classic;html=1;rounded=0;exitX=0.5;exitY=1;exitDx=0;exitDy=0;entryX=0.5;entryY=0;entryDx=0;entryDy=0;" edge="1" parent="1" source="Yh0Fh-VeUHj8jeNLL_Vo-12" target="Yh0Fh-VeUHj8jeNLL_Vo-13">
          <mxGeometry width="50" height="50" relative="1" as="geometry">
            <mxPoint x="310" y="400" as="sourcePoint" />
            <mxPoint x="360" y="350" as="targetPoint" />
          </mxGeometry>
        </mxCell>
        <mxCell id="Yh0Fh-VeUHj8jeNLL_Vo-29" value="" style="endArrow=classic;html=1;rounded=0;exitX=0.551;exitY=1.006;exitDx=0;exitDy=0;entryX=0.5;entryY=0;entryDx=0;entryDy=0;exitPerimeter=0;" edge="1" parent="1" source="Yh0Fh-VeUHj8jeNLL_Vo-12" target="Yh0Fh-VeUHj8jeNLL_Vo-14">
          <mxGeometry width="50" height="50" relative="1" as="geometry">
            <mxPoint x="610" y="440" as="sourcePoint" />
            <mxPoint x="610" y="480" as="targetPoint" />
          </mxGeometry>
        </mxCell>
        <mxCell id="Yh0Fh-VeUHj8jeNLL_Vo-30" value="" style="endArrow=classic;html=1;rounded=0;exitX=0.5;exitY=1;exitDx=0;exitDy=0;entryX=1;entryY=0.5;entryDx=0;entryDy=0;" edge="1" parent="1" source="Yh0Fh-VeUHj8jeNLL_Vo-14" target="Yh0Fh-VeUHj8jeNLL_Vo-11">
          <mxGeometry width="50" height="50" relative="1" as="geometry">
            <mxPoint x="310" y="560" as="sourcePoint" />
            <mxPoint x="360" y="510" as="targetPoint" />
          </mxGeometry>
        </mxCell>
        <mxCell id="Yh0Fh-VeUHj8jeNLL_Vo-31" value="" style="endArrow=classic;html=1;rounded=0;exitX=0;exitY=0.5;exitDx=0;exitDy=0;entryX=1;entryY=0.5;entryDx=0;entryDy=0;" edge="1" parent="1" source="Yh0Fh-VeUHj8jeNLL_Vo-13" target="Yh0Fh-VeUHj8jeNLL_Vo-9">
          <mxGeometry width="50" height="50" relative="1" as="geometry">
            <mxPoint x="310" y="560" as="sourcePoint" />
            <mxPoint x="360" y="510" as="targetPoint" />
          </mxGeometry>
        </mxCell>
      </root>
    </mxGraphModel>
  </diagram>
</mxfile>
